# AST/ASF file generated using VICON BodyLanguage
# -----------------------------------------------
:version 1.10
:name VICON
:units
  mass 1.0
  length 0.45
  angle deg
:documentation
   .ast/.asf automatically generated from VICON data using
   VICON BodyBuilder and BodyLanguage model FoxedUp or BRILLIANT.MOD
:root
   order TX TY TZ RX RY RZ
   axis XYZ
   position 0 0 0  
   orientation 0 0 0 
:bonedata
  begin
     id 1 
     name lhipjoint
     direction 0.682418 -0.694059 0.22932 
     length 2.25561 
     axis 0 0 0  XYZ
  end
  begin
     id 2 
     name lfemur
     direction 0.34202 -0.939693 0  
     length 6.96448  
     axis 0 0 20  XYZ
    dof rx ry rz
    limits (-160.0 20.0)
           (-70.0 70.0)
           (-60.0 70.0)
  end
  begin
     id 3 
     name ltibia
     direction 0.34202 -0.939693 0   
     length 6.88553   
     axis 0 0 20   XYZ
    dof rx
    limits (-10.0 170.0)
  end
  begin
     id 4 
     name lfoot
     direction 0.0723587 -0.198804 0.977364   
     length 1.88518   
     axis -90 7.62852e-016 20   XYZ
    dof rx rz
    limits (-45.0 90.0)
           (-70.0 20.0)
  end
  begin
     id 5 
     name ltoes
     direction 1.53558e-011 -4.21962e-011 1   
     length 0.952124   
     axis -90 7.62852e-016 20   XYZ
    dof rx
    limits (-90.0 20.0)
  end
  begin
     id 6 
     name rhipjoint
     direction -0.657603 -0.71533 0.236348   
     length 2.18854  
     axis 0 0 0  XYZ 
  end
  begin
     id 7 
     name rfemur
     direction -0.34202 -0.939693 0   
     length 6.86686   
     axis 0 0 -20   XYZ
    dof rx ry rz
    limits (-160.0 20.0)
           (-70.0 70.0)
           (-70.0 60.0)
  end
  begin
     id 8 
     name rtibia
     direction -0.34202 -0.939693 0   
     length 6.59503   
     axis 0 0 -20   XYZ
    dof rx
    limits (-10.0 170.0)
 end
 begin
     id 9 
     name rfoot
     direction -0.101977 -0.280179 0.954516   
     length 1.93723  
     axis -90 -7.62852e-016 -20   XYZ
    dof rx rz
    limits (-45.0 90.0)
           (-20.0 70.0)
  end
  begin
     id 10 
     name rtoes
     direction -1.53564e-011 -4.21897e-011 1   
     length 0.970315   
     axis -90 -7.62852e-016 -20   XYZ
    dof rx
    limits (-90.0 20.0)
  end
  begin
     id 11 
     name lowerback
     direction -0.0339559 0.999421 -0.00235966   
     length 1.88543   
     axis 0 0 0   XYZ
    dof rx ry rz
    limits (-20.0 45.0)
           (-30.0 30.0)
           (-30.0 30.0)
  end
  begin
     id 12 
     name upperback
     direction 0.00401003 0.999739 0.0224689   
     length 1.8856   
     axis 0 0 0   XYZ
    dof rx ry rz
    limits (-20.0 45.0)
           (-30.0 30.0)
           (-30.0 30.0)
  end
  begin
     id 13 
     name thorax
     direction 0.0198619 0.999546 0.0226536   
     length 1.88352   
     axis 0 0 0   XYZ
    dof rx ry rz
    limits (-20.0 45.0)
           (-30.0 30.0)
           (-30.0 30.0)
  end
  begin
     id 14 
     name lowerneck
     direction -0.0461848 0.998632 0.0245198   
     length 1.34895   
     axis 0 0 0   XYZ
    dof rx ry rz
    limits (-20.0 45.0)
           (-30.0 30.0)
           (-30.0 30.0)
  end
  begin
     id 15 
     name upperneck
     direction -0.0180627 0.994724 -0.100984   
     length 1.35214   
     axis 0 0 0   XYZ
    dof rx ry rz
    limits (-20.0 45.0)
           (-30.0 30.0)
           (-30.0 30.0)
  end
  begin
     id 16
     name head
     direction -0.00374772 0.999293 -0.037403  
     length 1.3568  
     axis 0 0 0   XYZ
    dof rx ry rz
    limits (-20.0 45.0)
           (-30.0 30.0)
           (-30.0 30.0)
  end
  begin
     id 17 
     name lclavicle
     direction 0.971773 0.191119 0.138311  
     length 2.84954  
     axis 0 0 0   XYZ
    dof ry rz
    limits (-20.0 10.0)
           (0.0 20.0)
  end
  begin
     id 18 
     name lhumerus
     direction 1 -4.4897e-011 -2.43761e-027   
     length 4.40919   
     axis 180 -30 -90   XYZ
    dof rx ry rz
    limits (-60.0 90.0)
           (-90.0 90.0)
           (-90.0 90.0)
  end
  begin
     id 19
     name lradius
     direction 1 -4.4896e-011 -9.1621e-027   
     length 3.03857   
     axis 180 -30 -90   XYZ
    dof rx
    limits (-10.0 170.0)
  end
  begin
     id 20
     name lwrist
     direction 1 -4.4896e-011 -1.41363e-026   
     length 1.51928   
     axis 1.07133e-014 90 90   XYZ
    dof ry
    limits (-180.0 0.0)
 end
  begin
     id 21 
     name lhand
     direction 1 -4.48978e-011 -2.82725e-026   
     length 0.523208   
     axis 1.80403e-014 90 90   XYZ
    dof rx rz
    limits (-90.0 90.0)
           (-45.0 45.0)
  end
  begin
     id 22 
     name lfingers
     direction 1 -4.48977e-011 -5.6545e-026   
     length 0.421824   
     axis 3.60806e-014 90 90   XYZ
    dof rx
    limits (0.0 90.0)
  end
  begin
     id 23
     name lthumb
     direction 0.707107 -6.34962e-011 0.707107   
     length 0.605657   
     axis -90 45 2.85299e-015   XYZ
    dof rx rz
    limits (-45.0 45.0)
           (-45.0 45.0)
  end
  begin
     id 24 
     name rclavicle
     direction -0.957247 0.24311 0.156766   
     length 3.12406  
     axis 0 0 0   XYZ 
    dof ry rz
    limits (-10.0 20.0)
           (-20.0 0.0)
  end
  begin
     id 25 
     name rhumerus
     direction -1 -4.48964e-011 -1.70632e-027  
     length 4.61969   
     axis 180 30 90   XYZ
    dof rx ry rz
    limits (-90.0 60.0)
           (-90.0 90.0)
           (-90.0 90.0)
  end
  begin
     id 26 
     name rradius
     direction -1 -4.48966e-011 -6.60395e-027   
     length 3.09382   
     axis 180 30 90   XYZ
    dof rx
    limits (-10.0 170.0)
  end
  begin
     id 27 
     name rwrist
     direction -1 -4.48963e-011 -1.41363e-026   
     length 1.54691   
     axis 1.07133e-014 -90 -90   XYZ
    dof ry
    limits (-180.0 0.0)
  end
  begin
     id 28
     name rhand
     direction -1 -4.49013e-011 -2.82725e-026   
     length 0.500896   
     axis 1.80403e-014 -90 -90   XYZ
    dof rx rz
    limits (-90.0 90.0)
           (-45.0 45.0)
  end
  begin
     id 29
     name rfingers
     direction -1 -4.48902e-011 -5.6545e-026   
     length 0.403835   
     axis 3.60806e-014 -90 -90   XYZ
    dof rx
    limits (0.0 90.0)
  end
  begin
     id 30
     name rthumb
     direction -0.707107 -6.34953e-011 0.707107   
     length 0.579829   
     axis -90 -45 -2.85299e-015   XYZ
    dof rx rz
    limits (-45.0 45.0)
           (-45.0 45.0)
  end
:hierarchy
  begin
    root lhipjoint rhipjoint lowerback
    lhipjoint lfemur
    lfemur ltibia
    ltibia lfoot
    lfoot ltoes
    rhipjoint rfemur
    rfemur rtibia
    rtibia rfoot
    rfoot rtoes
    lowerback upperback
    upperback thorax
    thorax lowerneck lclavicle rclavicle
    lowerneck upperneck
    upperneck head
    lclavicle lhumerus
    lhumerus lradius
    lradius lwrist
    lwrist lhand lthumb
    lhand lfingers
    rclavicle rhumerus
    rhumerus rradius
    rradius rwrist
    rwrist rhand rthumb
    rhand rfingers
  end

#!OML:ASF E:\madness\Project 1\Capture day 1\Session 1\Female1.ASF
:FULLY-SPECIFIED
:DEGREES
553
root 30.6668 15.6489 1.62477 -351.065 -49.8574 361.333
lowerback -2.40935 4.54126 -4.72993
upperback -3.16587 6.1091 1.31652
thorax -2.56399 3.18329 3.9686
lowerneck 4.67425 16.5186 13.5928
upperneck 8.68566 24.4613 -19.3572
head 5.97798 12.0372 -6.48997
rclavicle 3.50358e-015 1.74931e-014
rhumerus -8.28249 54.2339 -92.1496
rradius 89.8161
rwrist 2.15907
rhand -9.02271 -46.8157
rfingers 7.12502
rthumb 16.9246 -76.0983
lclavicle 3.50358e-015 1.74931e-014
lhumerus -14.0619 -52.9823 41.5016
lradius 99.2726
lwrist -12.5379
lhand -6.39154 -15.9098
lfingers 7.12502
lthumb 19.4559 13.1368
rfemur -3.64397 4.13861 21.43
rtibia 24.3607
rfoot -27.9314 -28.1388
rtoes -8.6951
lfemur -40.9347 -25.7913 -7.06239
ltibia 35.8962
lfoot -14.2487 -9.59636
ltoes 5.41506
554
root 30.6303 15.6553 1.67102 -351.149 -50.4143 361.36
lowerback -2.54222 4.4743 -4.81995
upperback -3.15841 6.02935 1.53033
thorax -2.50752 3.14762 4.25215
lowerneck 4.60867 16.7657 13.1394
upperneck 8.50989 24.7586 -19.3683
head 5.93033 12.1691 -6.39022
rclavicle -1.5207e-014 -6.36111e-015
rhumerus -5.7415 55.9332 -90.6017
rradius 89.8636
rwrist 2.17406
rhand -9.84535 -47.9698
rfingers 7.12502
rthumb 16.1326 -77.3184
lclavicle -1.5207e-014 -6.36111e-015
lhumerus -16.4794 -52.3547 43.0529
lradius 100.107
lwrist -12.5749
lhand -7.40434 -15.7976
lfingers 7.12502
lthumb 18.4819 13.3444
rfemur -3.21568 4.543 21.287
rtibia 23.9765
rfoot -28.0106 -28.0443
rtoes -9.08933
lfemur -40.6146 -25.1188 -7.57032
ltibia 36.4078
lfoot -14.2613 -9.95197
ltoes 5.97102
555
root 30.6019 15.661 1.71759 -351.105 -50.999 361.368
lowerback -2.58073 4.51377 -4.79731
upperback -3.25541 6.08237 1.61988
thorax -2.60069 3.17903 4.32926
lowerneck 4.35075 16.9124 12.9861
upperneck 8.57888 24.9436 -19.2913
head 5.99626 12.2367 -6.29308
rclavicle 1.95803e-014 -4.77083e-015
rhumerus -2.92318 57.0699 -88.742
rradius 89.5949
rwrist 1.95579
rhand -11.3594 -46.4956
rfingers 7.12502
rthumb 14.6742 -75.9564
lclavicle 1.95803e-014 -4.77083e-015
lhumerus -18.4762 -51.8482 44.1655
lradius 100.866
lwrist -12.6831
lhand -8.42789 -16.5714
lfingers 7.12502
lthumb 17.4971 12.6612
rfemur -2.96017 4.87237 21.0828
rtibia 23.5428
rfoot -27.8643 -27.8605
rtoes -9.42978
lfemur -40.4518 -24.3495 -7.99799
ltibia 36.799
lfoot -14.4017 -9.90835
ltoes 5.14115
556
root 30.5738 15.6633 1.76228 -351.179 -51.7043 361.408
lowerback -2.53457 4.59749 -4.76537
upperback -3.27629 6.19195 1.66759
thorax -2.66279 3.23562 4.3532
lowerneck 4.18447 17.04 12.9052
upperneck 8.44629 25.092 -19.3186
head 6.00149 12.3 -6.25415
rclavicle 3.07868e-014 7.95139e-016
rhumerus -0.272126 58.6225 -86.8764
rradius 89.7155
rwrist 1.49488
rhand -11.1876 -48.1176
rfingers 7.12502
rthumb 14.8397 -77.5662
lclavicle 3.07868e-014 7.95139e-016
lhumerus -20.319 -51.301 45.0528
lradius 101.67
lwrist -12.8475
lhand -9.41852 -17.3954
lfingers 7.12502
lthumb 16.5435 11.9194
rfemur -2.64063 5.22573 20.8292
rtibia 23.1922
rfoot -27.9007 -27.4428
rtoes -8.90109
lfemur -40.1963 -23.7828 -8.37647
ltibia 37.1577
lfoot -14.8607 -9.26063
ltoes 2.58338
557
root 30.5397 15.6646 1.80518 -351.422 -52.4219 361.496
lowerback -2.36282 4.81197 -4.65996
upperback -3.29728 6.4682 1.56747
thorax -2.7878 3.37246 4.16838
lowerneck 4.13529 17.0479 12.8559
upperneck 8.1458 25.0426 -19.2661
head 5.89413 12.2859 -6.24148
rclavicle -6.74501e-014 0
rhumerus 1.48004 59.6815 -85.9606
rradius 89.5903
rwrist 1.5825
rhand -10.8811 -48.4988
rfingers 7.12502
rthumb 15.135 -77.9253
lclavicle -6.74501e-014 0
lhumerus -21.7023 -51.1381 45.5304
lradius 102.641
lwrist -12.9268
lhand -10.0432 -17.8318
lfingers 7.12502
lthumb 15.9421 11.5321
rfemur -2.22914 5.5686 20.5922
rtibia 23.001
rfoot -28.1677 -26.9827
rtoes -8.01638
lfemur -39.7988 -23.4976 -8.72439
ltibia 37.5484
lfoot -15.2725 -8.48618
ltoes 0.0905688
558
root 30.5019 15.661 1.84883 -351.582 -53.2023 361.601
lowerback -2.42116 4.02062 -5.23429
upperback -2.88582 5.44097 2.58237
thorax -2.37622 2.87052 5.58895
lowerneck 3.13934 18.3239 9.90367
upperneck 7.58512 26.5432 -19.0177
head 5.70587 12.9003 -5.52623
rclavicle 7.64824e-014 1.82882e-014
rhumerus 7.02078 64.165 -80.9627
rradius 89.807
rwrist 1.30037
rhand -15.4972 -52.0517
rfingers 7.12502
rthumb 10.6852 -81.76
lclavicle 7.64824e-014 1.82882e-014
lhumerus -26.9467 -47.917 49.0519
lradius 103.691
lwrist -13.528
lhand -10.6454 -18.5611
lfingers 7.12502
lthumb 15.3621 10.8482
rfemur -1.9927 6.01049 20.3504
rtibia 22.9334
rfoot -28.3465 -26.6746
rtoes -7.57241
lfemur -39.4642 -23.1324 -9.02652
ltibia 37.9695
lfoot -15.3962 -8.21884
ltoes 0.399015
559
root 30.4702 15.6546 1.89353 -351.677 -54.3457 361.551
lowerback -2.28724 3.84364 -5.42079
upperback -2.72263 5.20749 2.99869
thorax -2.30887 2.7582 6.13153
lowerneck 2.61737 18.8856 9.08813
upperneck 7.18369 27.252 -19.2635
head 5.70078 13.2008 -5.3602
rclavicle 3.03147e-015 6.36111e-015
rhumerus 10.9287 67.7358 -77.5023
rradius 90.8783
rwrist -1.48926
rhand -21.0409 -57.9745
rfingers 7.12502
rthumb 5.33487 -87.8873
lclavicle 3.03147e-015 6.36111e-015
lhumerus -30.1625 -46.2066 50.8342
lradius 105.163
lwrist -12.8799
lhand -9.24195 -17.3661
lfingers 7.12502
lthumb 16.7135 11.9344
rfemur -1.81407 6.62978 20.1025
rtibia 22.9398
rfoot -28.3664 -26.2833
rtoes -7.91514
lfemur -38.9812 -22.5363 -9.31264
ltibia 38.4026
lfoot -15.4933 -7.82853
ltoes 1.62145
560
root 30.4415 15.6505 1.93941 -351.501 -55.347 361.44
lowerback -2.4513 3.81033 -5.47754
upperback -2.58822 5.17358 3.23927
thorax -2.10138 2.73575 6.43526
lowerneck 2.56507 19.0838 9.08371
upperneck 6.27502 27.4747 -20.0727
head 5.58436 13.3295 -5.5717
rclavicle -1.48592e-014 -7.95139e-016
rhumerus 12.3526 67.1247 -77.2211
rradius 89.5842
rwrist 2.82918
rhand -12.6621 -51.287
rfingers 7.12502
rthumb 13.4189 -80.8348
lclavicle -1.48592e-014 -7.95139e-016
lhumerus -32.3229 -45.0709 51.9683
lradius 106.091
lwrist -13.5435
lhand -10.1748 -17.3191
lfingers 7.12502
lthumb 15.8153 12.0549
rfemur -1.93334 6.98449 19.8677
rtibia 23.0536
rfoot -28.7496 -25.7344
rtoes -7.81202
lfemur -38.7998 -21.8188 -9.52976
ltibia 38.8003
lfoot -15.7188 -7.3731
ltoes 1.60123
561
root 30.4158 15.6498 1.98544 -351.383 -56.4441 361.315
lowerback -2.44074 3.94237 -5.43978
upperback -2.56453 5.34954 3.32528
thorax -2.11506 2.82414 6.50098
lowerneck 2.58752 19.2242 9.17485
upperneck 5.85881 27.6277 -20.2879
head 5.52087 13.4241 -5.63161
rclavicle 1.19271e-015 1.74931e-014
rhumerus 13.5819 68.3122 -76.6522
rradius 89.674
rwrist 2.28341
rhand -12.7508 -49.7214
rfingers 7.12502
rthumb 13.3334 -79.2748
lclavicle 1.19271e-015 1.74931e-014
lhumerus -34.4477 -44.6713 53.0737
lradius 107.476
lwrist -14.0025
lhand -10.9518 -15.3133
lfingers 7.12502
lthumb 15.0669 14.1184
rfemur -2.04294 7.22968 19.5994
rtibia 23.2184
rfoot -29.1543 -25.0495
rtoes -7.37283
lfemur -38.4784 -20.9413 -9.8337
ltibia 39.1257
lfoot -15.8536 -7.04626
ltoes 1.72234
562
root 30.3934 15.6535 2.03229 -351.265 -57.681 361.313
lowerback -2.23558 4.35263 -5.14683
upperback -3.03626 5.87549 2.86732
thorax -2.72043 3.10328 5.80442
lowerneck 3.38585 19.0924 10.3346
upperneck 5.45176 27.4363 -20.2766
head 5.39184 13.4289 -5.87442
rclavicle -1.48467e-013 -3.4191e-014
rhumerus 11.8939 67.7986 -79.1818
rradius 89.4152
rwrist 3.46541
rhand -10.3769 -49.2343
rfingers 7.12502
rthumb 15.6207 -78.6236
lclavicle -1.48467e-013 -3.4191e-014
lhumerus -36.2527 -45.2482 53.3233
lradius 108.667
lwrist -14.0827
lhand -11.1716 -15.6856
lfingers 7.12502
lthumb 14.8552 13.7618
rfemur -2.35902 7.56652 19.1714
rtibia 23.4122
rfoot -29.5246 -24.2602
rtoes -6.68004
lfemur -38.2104 -20.1116 -10.1331
ltibia 39.38
lfoot -15.9866 -6.61874
ltoes 1.38617
563
root 30.3696 15.6627 2.07981 -351.127 -59.0222 361.42
lowerback -2.2247 4.96881 -4.85348
upperback -3.61737 6.67517 2.16986
thorax -3.3229 3.50995 4.85947
lowerneck 4.53565 18.606 12.2417
upperneck 5.10389 26.8564 -20.3955
head 5.28038 13.2722 -6.33029
rclavicle 9.95538e-014 2.70347e-014
rhumerus 9.73777 65.9916 -81.8809
rradius 89.031
rwrist 5.1422
rhand -11.1766 -49.4923
rfingers 7.12502
rthumb 14.8503 -78.9402
lclavicle 9.95538e-014 2.70347e-014
lhumerus -37.6874 -46.59 53.3082
lradius 110.255
lwrist -13.6327
lhand -10.6497 -14.542
lfingers 7.12502
lthumb 15.3579 14.8677
rfemur -2.86573 7.95237 18.5983
rtibia 23.6095
rfoot -29.7759 -23.2712
rtoes -5.79002
lfemur -38.0377 -19.3692 -10.4072
ltibia 39.612
lfoot -16.3713 -5.95973
ltoes -0.378855
564
root 30.3476 15.6657 2.12775 -350.976 -60.3544 361.472
lowerback -2.50894 5.34299 -4.88144
upperback -3.71052 7.18038 1.99177
thorax -3.30401 3.76104 4.69627
lowerneck 4.83562 18.4578 12.8906
upperneck 4.50046 26.6307 -20.6258
head 5.13106 13.2164 -6.54926
rclavicle 6.72886e-014 5.56597e-015
rhumerus 10.4011 65.8128 -80.9191
rradius 89.664
rwrist 4.93696
rhand -11.5756 -50.3713
rfingers 7.12502
rthumb 14.4659 -79.847
lclavicle 6.72886e-014 5.56597e-015
lhumerus -39.4548 -46.6016 53.8859
lradius 111.756
lwrist -13.3138
lhand -10.2294 -14.2832
lfingers 7.12502
lthumb 15.7627 15.095
rfemur -3.32636 8.3814 18.0564
rtibia 23.8124
rfoot -29.9932 -22.2515
rtoes -5.17826
lfemur -37.8544 -18.7957 -10.6084
ltibia 39.8415
lfoot -16.6111 -5.11216
ltoes -1.56724
565
root 30.3244 15.6646 2.17387 -350.787 -61.7122 361.349
lowerback -2.71115 5.42947 -4.98103
upperback -3.54607 7.3105 2.16952
thorax -3.07298 3.82385 4.96121
lowerneck 4.62981 18.7942 12.5767
upperneck 3.77396 26.9703 -20.8357
head 4.99078 13.3913 -6.51957
rclavicle -1.44579e-013 -2.62396e-014
rhumerus 12.6782 66.532 -78.0481
rradius 90.6611
rwrist 4.43413
rhand -10.5356 -49.9755
rfingers 7.12502
rthumb 15.4678 -79.3767
lclavicle -1.44579e-013 -2.62396e-014
lhumerus -41.8191 -45.4184 54.9282
lradius 112.987
lwrist -13.0219
lhand -10.0439 -15.0721
lfingers 7.12502
lthumb 15.9414 14.2918
rfemur -3.64599 8.86919 17.652
rtibia 24.0329
rfoot -30.2294 -21.4766
rtoes -4.98013
lfemur -37.536 -18.3829 -10.687
ltibia 40.0636
lfoot -16.6248 -4.1175
ltoes -2.22723
566
root 30.3022 15.6733 2.22085 -350.573 -63.2834 361.259
lowerback -2.81329 5.51552 -5.02442
upperback -3.46981 7.43209 2.26675
thorax -2.97144 3.88349 5.09724
lowerneck 4.66591 19.0176 12.1706
upperneck 2.74039 27.0948 -20.9458
head 4.65451 13.4937 -6.52683
rclavicle -1.48343e-014 -3.18055e-015
rhumerus 14.443 67.2646 -75.627
rradius 91.9236
rwrist 4.06757
rhand -10.1672 -50.1457
rfingers 7.12502
rthumb 15.8226 -79.5191
lclavicle -1.48343e-014 -3.18055e-015
lhumerus -44.1054 -44.0712 55.8531
lradius 113.863
lwrist -12.8313
lhand -9.85484 -16.3473
lfingers 7.12502
lthumb 16.1234 13.002
rfemur -4.06976 9.33686 17.1314
rtibia 24.2115
rfoot -30.3731 -20.7587
rtoes -5.1449
lfemur -37.2364 -17.8713 -10.7916
ltibia 40.3028
lfoot -16.6902 -3.05361
ltoes -3.37962
